<svg xmlns="http://www.w3.org/2000/svg" viewBox="0 0 76.23 53.56">
  <defs>
    <style>
      .cls-1 {
        fill: #fff;
        stroke: #000;
        stroke-miterlimit: 10;
        stroke-width: 0.25px;
      }

      .cls-2 {
        font-size: 13px;
      }

      .cls-2, .cls-3 {
        font-family: Stencil;
      }

      .cls-3 {
        font-size: 12px;
      }
    </style>
  </defs>
  <title>logo_v1</title>
  <g id="Layer_2" data-name="Layer 2">
    <rect class="cls-1" x="0.13" y="0.13" width="71.64" height="53.31"/>
    <rect class="cls-1" x="8.96" y="4.54" width="4.42" height="44.48"/>
    <rect class="cls-1" x="13.38" y="4.54" width="4.42" height="44.48"/>
    <rect class="cls-1" x="17.8" y="4.54" width="4.42" height="44.48"/>
    <rect class="cls-1" x="22.22" y="4.54" width="4.42" height="44.48"/>
    <rect class="cls-1" x="26.64" y="4.54" width="4.42" height="44.48"/>
    <rect class="cls-1" x="31.06" y="4.54" width="4.42" height="44.48"/>
    <rect class="cls-1" x="35.48" y="4.54" width="4.42" height="44.48"/>
    <rect class="cls-1" x="39.9" y="4.54" width="4.42" height="44.48"/>
    <rect class="cls-1" x="44.32" y="4.54" width="4.42" height="44.48"/>
    <rect class="cls-1" x="48.74" y="4.54" width="4.42" height="44.48"/>
    <rect class="cls-1" x="4.54" y="4.54" width="4.42" height="44.48"/>
    <rect class="cls-1" x="53.16" y="4.54" width="4.42" height="44.48"/>
    <rect class="cls-1" x="57.58" y="4.54" width="4.42" height="44.48"/>
    <rect class="cls-1" x="57.59" y="-9.17" width="4.42" height="78.75" transform="translate(24.88 -39.37) rotate(54.1)"/>
    <rect class="cls-1" x="58.05" y="18.83" width="4.42" height="71.64" transform="translate(90.6 -9.03) rotate(90)"/>
    <rect class="cls-1" x="0.13" y="4.54" width="4.42" height="48.9"/>
    <rect class="cls-1" x="58.05" y="-30.06" width="4.42" height="71.64" transform="translate(41.7 -57.92) rotate(90)"/>
    <rect class="cls-1" x="67.34" y="0.13" width="4.42" height="48.9"/>
  </g>
  <g id="text">
    <text class="cls-2" transform="translate(30.1 43.42)">Drop</text>
    <text class="cls-3" transform="translate(6.02 14.11)">Supply</text>
  </g>
</svg>
